<?xml version="1.0" standalone="no"?>
<!DOCTYPE svg PUBLIC "-//W3C//DTD SVG 20010904//EN"
 "http://www.w3.org/TR/2001/REC-SVG-20010904/DTD/svg10.dtd">
<svg version="1.0" xmlns="http://www.w3.org/2000/svg"
 width="1600.000000pt" height="1600.000000pt" viewBox="0 0 1600.000000 1600.000000"
 preserveAspectRatio="xMidYMid meet">

<g transform="translate(0.000000,1600.000000) scale(0.100000,-0.100000)"
fill="#000000" stroke="none">
<path d="M7745 15994 c-33 -2 -145 -8 -250 -14 -689 -39 -1402 -180 -2076
-409 -174 -59 -513 -190 -639 -248 -36 -16 -103 -47 -150 -68 -474 -215 -1094
-594 -1530 -934 -444 -346 -894 -782 -1255 -1216 -510 -613 -950 -1342 -1242
-2060 -338 -833 -523 -1633 -584 -2535 -17 -238 -17 -782 0 -1020 75 -1110
354 -2135 842 -3095 398 -785 885 -1452 1516 -2077 338 -335 598 -555 978
-828 373 -268 893 -571 1275 -745 47 -21 114 -52 150 -68 407 -186 1050 -394
1519 -493 595 -125 1099 -178 1701 -178 788 0 1480 97 2235 314 303 87 742
246 985 357 36 16 103 47 150 68 562 255 1231 679 1730 1095 415 346 820 759
1148 1169 643 804 1147 1768 1422 2721 12 41 28 95 35 120 21 68 91 352 115
465 121 581 174 1091 174 1685 0 594 -53 1104 -174 1685 -24 113 -94 397 -115
465 -7 25 -23 79 -35 120 -110 380 -288 842 -469 1211 -507 1040 -1210 1935
-2101 2679 -499 416 -1165 838 -1730 1095 -47 21 -114 52 -150 68 -126 58
-465 189 -639 248 -651 221 -1313 355 -2001 404 -200 15 -715 26 -835 19z
m295 -1547 c54 -186 89 -249 208 -369 47 -48 84 -89 81 -90 -2 -2 -26 -14 -54
-28 -111 -56 -154 -129 -190 -325 -14 -76 -28 -142 -31 -147 -6 -9 -101 -5
-109 4 -2 2 -13 59 -24 127 -33 197 -80 280 -193 345 -27 15 -48 30 -48 35 0
4 27 29 59 55 33 25 76 68 95 95 46 62 107 192 142 299 14 45 30 80 35 77 4
-3 18 -38 29 -78z m-380 -569 c116 -39 183 -131 214 -298 9 -45 16 -84 16 -86
0 -2 -20 -4 -44 -4 l-44 0 -22 66 c-26 78 -79 137 -139 155 -73 22 -120 -8
-140 -87 -6 -24 -15 -44 -19 -44 -5 0 -18 18 -30 39 -58 102 -28 226 63 267
42 19 72 17 145 -8z m818 -3 c59 -18 88 -51 98 -112 7 -44 -14 -134 -40 -168
-14 -19 -15 -19 -25 10 -22 59 -37 78 -71 93 -82 34 -175 -29 -220 -148 l-22
-60 -44 0 c-39 0 -44 3 -44 23 0 38 29 146 49 185 26 51 106 139 145 159 65
34 106 38 174 18z m-2051 -468 c11 -93 36 -155 67 -167 32 -11 73 8 86 41 17
39 7 81 -32 135 -27 38 -30 47 -18 54 22 14 40 12 89 -10 55 -25 57 -25 93 5
26 22 39 25 109 25 l79 0 -1 -62 c0 -35 -6 -81 -13 -103 -12 -39 -12 -41 26
-82 29 -32 38 -51 38 -78 l0 -35 -62 32 c-69 35 -149 48 -173 28 -23 -19 -35
-75 -24 -116 18 -63 115 -152 193 -176 211 -63 353 14 373 202 3 33 10 60 15
60 5 0 40 -22 79 -49 91 -64 153 -85 232 -78 83 7 132 43 172 124 26 53 34 62
58 62 23 1 27 -3 27 -26 -1 -69 -69 -163 -147 -203 -40 -21 -62 -25 -138 -25
-80 0 -97 3 -157 32 -74 35 -74 35 -105 -37 -35 -80 -132 -140 -227 -140 -17
0 -48 -3 -68 -6 -35 -6 -38 -9 -44 -50 -3 -24 -10 -44 -15 -44 -11 0 -71 51
-149 129 -36 35 -119 110 -185 166 -227 193 -352 270 -524 321 -50 15 -90 32
-88 38 2 5 16 19 31 30 25 19 41 21 162 20 74 0 134 3 134 8 0 18 50 58 73 58
22 0 24 -5 34 -83z m1821 47 l63 -6 -3 -81 -3 -82 -302 0 c-166 0 -304 3 -308
6 -11 12 -17 78 -11 123 l7 45 82 3 c111 4 397 -1 475 -8z m1021 2 c15 -8 33
-22 40 -30 12 -14 18 -13 57 10 35 20 52 25 79 20 32 -6 34 -8 24 -34 -6 -15
-19 -36 -30 -48 -63 -67 -25 -180 54 -160 35 8 67 82 74 168 3 39 11 72 18 74
22 9 64 -15 80 -47 15 -27 20 -30 48 -25 85 16 149 18 190 7 45 -13 107 -55
96 -65 -3 -3 -41 -13 -85 -22 -128 -26 -232 -84 -483 -272 -96 -71 -345 -293
-368 -328 -8 -13 -14 -40 -13 -61 1 -21 2 -46 1 -57 -1 -18 -26 -18 -868 -12
-478 3 -955 9 -1060 12 l-193 6 0 56 0 55 773 -6 c424 -4 897 -10 1050 -14
l277 -6 0 45 c0 25 -6 50 -12 56 -7 5 -38 13 -68 17 -148 18 -220 62 -261 161
-26 63 -21 62 -132 20 -127 -48 -241 -25 -333 68 -70 72 -100 181 -49 181 14
0 27 -15 45 -52 85 -178 224 -198 431 -64 34 22 66 41 70 41 3 0 9 -27 12 -59
17 -161 109 -239 271 -229 176 11 323 138 300 257 -14 70 -91 78 -205 20 l-62
-31 6 44 c4 32 14 51 42 76 l36 33 -16 51 c-16 54 -19 98 -9 136 6 20 12 22
76 22 40 0 80 -6 97 -14z m-1240 -234 c42 -7 45 -9 61 -57 10 -28 32 -76 50
-108 34 -61 32 -65 -24 -42 l-36 15 0 -54 c0 -70 -5 -82 -47 -110 -41 -28 -61
-25 -99 16 -25 26 -29 37 -29 89 1 47 -2 58 -13 54 -32 -12 -62 -17 -62 -9 0
4 13 28 29 53 16 25 34 66 41 91 6 25 13 51 15 58 5 13 44 14 114 4z m-1559
-494 c103 -47 173 -130 212 -251 27 -83 29 -254 3 -347 -104 -377 -437 -623
-757 -560 -107 20 -104 32 10 51 74 12 122 27 184 57 227 110 390 371 391 627
1 143 -41 231 -133 278 -47 25 -63 28 -113 24 -148 -13 -258 -158 -202 -266 9
-18 14 -35 12 -38 -12 -11 -49 21 -69 60 -70 136 32 327 205 383 66 22 190 13
257 -18z m3353 -1 c64 -32 129 -94 160 -151 32 -62 31 -179 -3 -229 -13 -20
-35 -41 -47 -46 -26 -12 -29 -3 -8 25 8 11 14 42 15 75 0 74 -37 133 -108 172
-185 101 -352 -25 -352 -265 0 -186 96 -388 251 -533 98 -90 255 -155 376
-155 130 0 36 -51 -107 -57 -303 -15 -561 185 -673 520 -28 85 -31 103 -31
227 0 116 3 143 22 190 50 126 120 199 232 240 80 29 198 23 273 -13z m-1713
-206 c322 -6 666 -14 766 -17 l181 -6 -5 -142 c-2 -77 -7 -143 -9 -146 -9 -9
-1580 -3 -1940 7 l-183 6 0 116 c0 64 3 133 6 153 l7 37 106 4 c158 5 420 2
1071 -12z m181 -616 c565 -67 1275 -298 1642 -534 l77 -50 0 -1283 c0 -722 -4
-1318 -9 -1364 -12 -101 -38 -179 -110 -324 -181 -366 -465 -674 -994 -1073
-311 -236 -822 -547 -897 -547 -67 0 -484 248 -845 503 -378 267 -695 575
-932 905 -77 107 -173 299 -207 412 l-25 85 -4 1310 c-2 721 -2 1327 1 1347 4
33 11 42 66 76 397 251 1046 462 1646 537 146 18 439 18 591 0z m-2596 -428
c62 -31 124 -84 149 -127 20 -36 22 -36 -65 23 -119 81 -255 105 -398 72 -35
-9 -66 -14 -67 -12 -6 6 97 60 130 68 17 5 69 7 116 5 67 -3 96 -9 135 -29z
m4934 -7 c34 -18 60 -35 58 -37 -2 -2 -33 3 -68 12 -143 33 -279 9 -398 -72
-87 -59 -85 -59 -65 -23 35 60 133 131 209 151 17 5 69 7 116 5 75 -3 94 -8
148 -36z m-5016 -155 c101 -26 182 -77 223 -141 9 -13 14 -27 12 -30 -3 -2
-37 15 -77 39 -113 70 -193 92 -336 92 -66 0 -135 -3 -154 -7 -58 -13 -17 19
53 41 75 24 199 27 279 6z m5050 -5 c72 -22 116 -56 56 -42 -19 4 -88 7 -154
7 -143 0 -223 -22 -336 -92 -40 -24 -74 -41 -77 -39 -7 7 22 50 55 81 98 93
305 132 456 85z m-4981 -189 c68 -26 139 -78 167 -124 29 -47 26 -53 -9 -23
-43 36 -144 83 -220 102 -104 26 -241 11 -375 -42 -20 -7 -20 -7 0 15 27 32
99 72 154 88 66 19 212 10 283 -16z m4981 -9 c61 -30 139 -96 92 -77 -136 52
-271 67 -375 41 -76 -19 -177 -66 -220 -102 -35 -30 -38 -24 -9 22 39 63 136
124 232 144 23 5 81 8 130 6 74 -3 97 -8 150 -34z m-5029 -158 c97 -27 164
-81 206 -165 35 -68 23 -74 -31 -15 -61 67 -164 121 -256 135 -84 13 -176 -2
-275 -44 -30 -12 -20 12 15 39 91 70 210 87 341 50z m4978 0 c51 -16 128 -67
128 -85 0 -7 -7 -8 -17 -4 -153 65 -277 65 -410 0 -52 -26 -87 -52 -127 -97
-51 -56 -55 -58 -46 -29 52 181 267 279 472 215z m-4922 -233 c124 -64 187
-158 197 -296 5 -58 3 -76 -5 -71 -7 4 -12 15 -12 25 0 10 -16 50 -35 89 -109
218 -378 286 -543 138 -22 -20 -42 -36 -46 -36 -12 0 26 65 58 98 61 66 111
82 241 79 81 -3 108 -7 145 -26z m4930 5 c48 -25 98 -74 121 -118 23 -46 18
-48 -24 -8 -164 155 -441 89 -552 -132 -19 -39 -35 -81 -35 -94 0 -13 -4 -24
-10 -24 -26 0 -3 157 34 228 34 66 122 136 206 163 46 15 221 5 260 -15z
m-4965 -300 c88 -37 191 -190 214 -320 22 -120 11 -254 -31 -386 -27 -87 -122
-281 -201 -411 -111 -183 -184 -345 -201 -445 -39 -220 1 -403 108 -502 118
-109 245 -28 191 123 -8 21 -12 41 -9 44 10 10 65 -55 80 -96 32 -82 -2 -172
-84 -220 -103 -61 -257 -22 -367 92 -102 106 -175 303 -175 471 0 146 30 272
102 431 36 78 90 179 120 225 102 153 194 325 228 425 30 87 34 110 34 208 1
101 -1 115 -27 168 -31 62 -64 87 -117 87 -41 0 -83 -23 -97 -52 -21 -44 -23
-59 -8 -94 12 -29 12 -34 0 -34 -21 0 -53 38 -61 72 -14 68 50 183 120 214 41
18 138 17 181 0z m4847 4 c71 -20 138 -113 138 -194 0 -24 -25 -86 -34 -86 -3
0 -11 -3 -20 -6 -13 -5 -14 -2 -5 25 17 49 3 97 -37 127 -49 38 -104 38 -143
0 -52 -50 -66 -104 -65 -246 0 -118 2 -130 35 -217 33 -85 101 -208 251 -458
86 -143 134 -248 165 -361 87 -314 -36 -688 -263 -799 -154 -75 -328 -7 -342
134 -5 58 10 110 45 151 36 43 56 41 37 -5 -26 -64 -15 -141 25 -172 24 -19
77 -15 121 7 118 60 196 321 156 519 -28 139 -68 224 -223 483 -159 265 -223
458 -223 668 0 168 56 306 155 380 78 58 144 73 227 50z m-4625 -1057 c2 -65
-2 -228 -10 -363 -15 -268 -21 -293 -85 -354 -62 -59 -166 -42 -223 37 -73
101 -37 247 126 507 36 58 89 151 117 208 34 70 54 100 61 93 5 -5 12 -63 14
-128z m4313 45 c25 -51 74 -140 109 -198 166 -272 209 -441 135 -537 -49 -64
-119 -79 -194 -40 -36 17 -51 34 -73 78 -26 51 -29 70 -38 230 -17 315 -13
559 10 559 4 0 27 -42 51 -92z m-4221 -1341 c41 -81 72 -149 70 -151 -2 -2
-60 5 -129 15 -69 10 -150 19 -180 19 -60 0 -100 8 -100 20 0 4 27 28 60 54
34 26 75 68 93 94 43 63 84 104 100 100 6 -2 45 -70 86 -151z m4221 81 c24
-29 75 -83 114 -120 l71 -66 -35 -5 c-147 -22 -380 -42 -380 -33 0 11 114 243
131 267 26 36 40 30 99 -43z m-4010 -452 c176 -239 427 -479 673 -642 191
-127 357 -216 788 -422 154 -74 296 -155 328 -187 l24 -23 -110 -35 c-190 -60
-203 -62 -508 -61 -178 0 -289 4 -305 11 -24 10 -23 11 33 36 74 34 142 82
156 113 l11 24 -213 1 c-229 1 -280 6 -256 25 8 6 32 17 54 24 54 17 109 45
124 63 14 17 -13 22 -194 32 -55 3 -140 12 -189 21 -141 24 -218 64 -126 64
60 0 189 28 239 52 55 27 55 27 -134 68 -161 36 -270 76 -445 167 -193 100
-207 117 -67 88 97 -20 261 -17 316 6 l33 14 -57 39 c-113 78 -205 203 -258
349 -25 69 -30 102 -34 207 -4 82 -2 122 5 115 5 -5 56 -73 112 -149z m3760
60 c0 -195 -106 -422 -253 -541 -27 -22 -61 -50 -75 -61 l-26 -21 25 -14 c41
-23 220 -23 324 -1 50 11 92 18 94 16 18 -16 -316 -191 -429 -224 -163 -48
-208 -60 -275 -72 -38 -7 -70 -17 -70 -23 1 -18 139 -67 225 -79 82 -12 84
-13 55 -25 -65 -27 -234 -53 -377 -58 -82 -3 -148 -9 -148 -13 0 -18 60 -57
118 -79 79 -28 86 -41 25 -42 -26 -1 -136 -4 -243 -8 l-195 -6 40 -44 c27 -30
66 -56 120 -82 l80 -37 -40 -8 c-22 -5 -159 -9 -305 -9 -236 1 -276 3 -368 23
-122 27 -217 63 -217 82 0 26 141 110 405 241 146 73 299 146 340 163 41 17
91 43 110 57 19 14 64 42 100 62 184 103 437 304 625 498 104 107 155 169 292
357 14 18 29 30 34 27 5 -4 9 -39 9 -79z m-4528 -36 c218 -67 410 -302 458
-560 16 -81 16 -259 1 -325 -37 -164 -155 -361 -283 -473 -135 -119 -349 -232
-436 -232 -18 0 -43 -5 -54 -11 -34 -18 -223 -28 -354 -18 -150 11 -362 53
-609 119 -323 87 -485 123 -680 151 -277 40 -560 35 -741 -12 -115 -29 -164
-38 -164 -28 0 14 129 94 237 148 145 72 289 114 503 148 168 26 528 24 700
-5 69 -11 170 -28 225 -37 55 -8 141 -24 190 -34 233 -49 528 -59 658 -23 193
55 359 184 431 335 61 130 52 338 -22 484 -52 101 -174 193 -276 208 -86 13
-176 -31 -214 -105 -23 -45 -24 -68 -6 -159 l7 -33 -25 16 c-13 9 -35 35 -49
58 -19 35 -24 56 -23 113 1 82 18 127 69 183 102 113 276 148 457 92z m5496
-5 c64 -29 136 -95 166 -152 45 -89 42 -190 -8 -256 -45 -58 -59 -59 -39 -2
32 94 -3 184 -88 228 -47 25 -62 28 -117 24 -158 -12 -292 -134 -346 -316 -25
-86 -21 -249 8 -332 73 -206 277 -354 549 -395 148 -23 321 -8 732 61 357 60
454 70 670 69 298 0 507 -41 737 -144 109 -48 245 -127 268 -155 28 -33 12
-32 -245 27 -87 20 -127 22 -305 22 -306 -1 -518 -35 -960 -154 -440 -119
-538 -135 -805 -134 -244 1 -305 13 -465 90 -264 127 -448 337 -519 593 -29
103 -44 255 -32 311 45 203 55 231 131 349 92 144 227 245 385 287 81 22 209
12 283 -21z m-5579 -451 c28 -15 59 -43 75 -67 24 -37 27 -50 24 -104 -3 -49
-10 -72 -34 -105 -78 -113 -239 -116 -311 -6 -24 36 -28 51 -28 118 0 69 3 80
29 114 57 76 160 97 245 50z m5510 6 c142 -72 148 -270 11 -340 -119 -61 -241
-14 -276 106 -18 64 -12 108 26 167 50 79 157 109 239 67z m2239 -170 c193
-21 367 -72 557 -166 173 -85 261 -151 527 -391 264 -239 325 -299 289 -288
-96 29 -290 141 -469 269 -301 217 -366 260 -482 320 -145 75 -177 88 -400
166 -197 69 -233 84 -223 93 9 10 88 9 201 -3z m-9969 -4 c-2 -2 -78 -32 -169
-66 -400 -151 -594 -254 -860 -456 -80 -60 -183 -133 -230 -161 -103 -62 -287
-153 -309 -153 -9 0 12 25 49 58 35 31 139 126 230 211 175 163 264 235 400
324 192 124 403 207 599 236 57 9 298 14 290 7z m-879 -52 c-113 -60 -260
-159 -520 -349 -270 -197 -468 -320 -486 -302 -2 2 67 73 153 158 223 217 369
328 560 423 114 57 286 113 348 115 25 1 15 -7 -55 -45z m11580 26 c202 -56
372 -145 570 -299 86 -67 404 -370 396 -378 -18 -18 -214 104 -486 302 -261
191 -408 289 -520 349 -96 52 -84 60 40 26z m-10200 -85 c112 -18 320 -79 462
-135 109 -44 179 -81 160 -88 -12 -4 -128 7 -337 32 -447 54 -732 18 -1119
-138 -44 -18 -232 -106 -418 -195 -185 -88 -340 -161 -344 -161 -31 0 316 299
461 397 187 125 483 245 699 284 127 22 312 24 436 4z m9160 1 c307 -41 579
-158 863 -373 185 -139 359 -295 344 -309 -3 -3 -146 62 -318 146 -750 366
-987 415 -1629 335 -200 -24 -274 -29 -266 -16 4 6 38 27 74 45 142 71 371
144 522 165 41 6 86 13 100 15 60 8 213 4 310 -8z m-2725 -431 c75 -152 157
-260 249 -330 36 -27 64 -51 61 -53 -9 -9 -108 32 -162 67 -166 107 -293 364
-293 591 0 102 12 96 47 -27 21 -74 57 -167 98 -248z m-3945 261 c0 -230 -124
-478 -294 -588 -53 -34 -153 -74 -163 -64 -2 1 28 26 67 55 76 57 160 157 217
259 48 86 117 260 139 350 9 39 21 72 26 72 4 0 8 -38 8 -84z m3714 -61 c41
-235 135 -430 265 -551 44 -42 45 -43 16 -35 -86 24 -192 125 -249 238 -44 88
-66 187 -66 298 0 89 7 151 16 143 1 -2 10 -44 18 -93z m-3589 -4 c24 -253
-117 -514 -321 -591 -18 -7 -7 8 38 52 37 37 84 98 111 146 56 96 119 281 138
400 14 92 24 90 34 -7z m3496 -271 c25 -102 66 -187 121 -254 l41 -48 -34 17
c-123 63 -193 198 -192 370 0 50 6 110 13 135 l14 45 8 -90 c5 -49 18 -128 29
-175z m-3378 156 c26 -180 -44 -362 -168 -438 -43 -26 -53 -22 -23 10 92 97
158 293 158 467 0 82 19 60 33 -39z m3260 -325 c14 -41 40 -91 57 -112 34 -42
30 -49 -12 -21 -58 38 -104 124 -117 214 -9 68 1 173 22 223 11 27 13 16 18
-100 5 -103 12 -145 32 -204z m-3131 210 c25 -146 -32 -309 -124 -357 l-31
-16 22 33 c62 94 101 237 101 378 1 81 14 65 32 -38z m2964 -69 c0 -111 26
-212 71 -277 l27 -40 -29 19 c-17 11 -36 27 -43 35 -49 61 -75 172 -61 259 7
43 25 102 31 102 2 0 3 -44 4 -98z m-2830 -31 c11 -99 -22 -199 -85 -257 -38
-36 -45 -29 -16 17 37 58 65 176 66 278 1 84 1 85 15 53 8 -18 17 -59 20 -91z
m2718 21 c-9 -60 13 -180 45 -244 22 -44 25 -56 13 -49 -24 13 -46 40 -68 81
-21 41 -25 177 -6 223 16 38 23 34 16 -11z m-2616 -77 c5 -86 -8 -139 -48
-187 -43 -52 -54 -48 -26 10 30 60 46 135 46 220 1 55 3 63 12 47 6 -10 13
-51 16 -90z m287 -480 c24 -54 24 -55 67 -55 70 0 76 -12 28 -51 -45 -36 -43
-28 -23 -132 l6 -29 -53 33 -53 32 -49 -27 c-27 -15 -51 -26 -54 -23 -2 2 1
28 8 56 l12 53 -43 35 c-49 42 -43 53 31 53 39 0 48 4 54 22 12 38 34 88 39
88 3 0 16 -25 30 -55z m579 -56 c22 0 49 -4 60 -8 16 -6 14 -11 -24 -41 -40
-32 -42 -35 -36 -74 3 -23 9 -51 12 -64 6 -22 5 -22 -47 9 l-54 31 -48 -27
c-27 -15 -51 -24 -54 -22 -3 3 0 29 7 57 7 28 11 52 9 53 -2 2 -23 19 -45 39
l-42 36 30 6 c17 3 44 6 60 6 26 0 32 6 55 58 l25 57 25 -57 c25 -57 26 -58
67 -59z m452 58 c18 -44 26 -52 50 -55 16 -1 44 -5 63 -8 l34 -5 -47 -42 -46
-42 14 -52 c8 -32 10 -53 4 -53 -5 0 -29 12 -54 26 l-44 26 -44 -26 c-25 -14
-49 -26 -54 -26 -6 0 -4 21 4 53 l14 52 -46 42 -47 42 34 5 c19 3 47 7 63 8
24 3 32 11 50 55 11 29 23 53 26 53 3 0 15 -24 26 -53z m519 -2 c21 -49 27
-55 53 -55 16 0 43 -3 60 -6 l30 -6 -42 -36 c-22 -20 -43 -37 -45 -39 -2 -1 2
-25 9 -53 7 -28 10 -54 7 -57 -3 -2 -27 7 -54 22 l-48 27 -53 -31 c-28 -17
-52 -27 -52 -23 0 4 7 31 14 60 l14 52 -45 37 c-39 32 -43 38 -26 44 10 4 37
8 60 8 40 1 42 2 64 56 12 30 24 55 26 55 2 0 14 -25 28 -55z m580 -56 c22 0
48 -4 59 -8 16 -6 13 -12 -25 -43 l-43 -36 12 -53 c7 -28 10 -54 8 -56 -3 -3
-27 8 -54 23 l-49 27 -53 -32 -53 -33 6 29 c21 105 22 96 -27 135 -43 33 -45
36 -24 42 13 3 40 6 61 6 37 0 39 2 65 58 l26 57 25 -57 c25 -57 27 -58 66
-59z m-5865 6 c481 -9 1150 -20 1485 -25 1172 -19 1400 -24 1365 -31 -19 -4
-280 -10 -580 -13 -300 -4 -777 -11 -1060 -16 -283 -5 -821 -14 -1195 -20
-374 -5 -825 -12 -1001 -16 -319 -6 -322 -6 -343 15 -33 33 -21 115 18 124 9
2 111 2 226 0 116 -2 604 -10 1085 -18z m10805 0 c31 -30 33 -77 4 -106 -21
-21 -24 -21 -343 -15 -176 4 -629 11 -1006 16 -377 6 -912 15 -1190 20 -278 5
-752 12 -1055 16 -302 3 -566 9 -585 13 -35 7 192 12 1365 31 336 5 1004 17
1485 25 481 9 947 17 1035 18 88 1 184 4 213 5 45 2 57 -2 77 -23z m-5545
-499 c85 -26 130 -62 167 -136 30 -60 59 -200 46 -222 -2 -5 -58 -8 -124 -8
l-119 0 0 45 c0 116 -74 177 -189 155 -59 -11 -91 -46 -91 -101 0 -78 4 -81
290 -258 116 -72 204 -149 232 -204 27 -53 35 -165 18 -238 -41 -173 -199
-261 -439 -246 -168 10 -271 65 -326 172 -27 52 -30 70 -34 167 l-3 108 124 0
125 0 6 -80 c8 -123 51 -179 145 -188 94 -9 152 42 152 133 0 88 -32 119 -242
244 -235 139 -308 226 -308 367 0 166 79 260 252 299 79 18 242 13 318 -9z
m-4806 -353 c48 -192 90 -350 92 -352 2 -2 5 -2 7 0 3 4 129 513 156 632 l16
67 203 0 202 0 -2 -592 -3 -593 -120 0 -120 0 -5 495 c-3 272 -8 488 -11 480
-3 -8 -59 -229 -124 -490 -65 -261 -123 -478 -129 -482 -19 -13 -134 -9 -143
4 -4 7 -63 229 -130 493 l-121 480 -1 -487 -1 -488 -22 -5 c-13 -3 -70 -5
-128 -3 l-105 3 -3 593 -2 592 203 0 203 0 88 -347z m1480 295 c8 -29 42 -159
75 -288 73 -282 152 -585 190 -732 16 -59 26 -109 23 -113 -8 -8 -245 -6 -258
3 -8 5 -74 269 -74 297 0 3 -66 4 -147 3 l-147 -3 -31 -140 c-17 -78 -35 -146
-39 -153 -9 -15 -252 -17 -261 -2 -5 8 52 225 261 990 25 91 47 171 49 178 3
9 47 12 174 12 l170 0 15 -52z m1176 -33 l0 -85 -145 0 -145 0 0 -505 0 -505
-22 -5 c-13 -3 -70 -5 -128 -3 l-105 3 -3 508 -2 507 -145 0 -145 0 0 85 0 85
420 0 420 0 0 -85z m719 48 c6 -21 58 -220 116 -443 58 -223 121 -467 141
-543 20 -75 33 -144 30 -152 -5 -13 -27 -15 -132 -13 -147 3 -128 -16 -164
158 -34 166 -16 151 -182 148 l-143 -3 -32 -144 c-18 -79 -36 -148 -41 -153
-5 -5 -65 -7 -133 -6 l-124 3 1 25 c1 14 22 102 48 195 26 94 53 193 61 220 7
28 34 127 60 220 25 94 52 193 60 220 42 157 76 282 80 293 3 9 47 12 174 12
l170 0 10 -37z m2133 -195 l3 -233 175 0 175 0 3 233 2 232 125 0 125 0 -2
-592 -3 -593 -120 0 -120 0 -5 270 -5 270 -175 0 -175 0 -5 -270 -5 -270 -120
0 -120 0 -3 593 -2 592 125 0 125 0 2 -232z m1493 217 c77 -20 132 -58 170
-120 26 -42 30 -60 34 -132 4 -97 -9 -159 -44 -212 -26 -38 -89 -81 -119 -81
-27 0 -9 -18 24 -25 42 -9 89 -52 111 -100 15 -31 19 -66 19 -160 0 -147 12
-234 39 -287 11 -23 18 -45 15 -50 -9 -14 -260 -10 -271 5 -18 22 -25 71 -32
243 -10 239 -19 250 -226 261 l-115 6 -2 -259 -3 -259 -114 -3 c-76 -2 -118 1
-127 9 -12 10 -15 101 -14 590 1 317 4 580 7 583 4 3 137 6 298 6 228 0 304
-3 350 -15z m1165 -70 l0 -85 -230 0 -230 0 0 -150 0 -150 210 0 210 0 0 -90
0 -90 -210 0 -210 0 0 -180 0 -180 230 0 231 0 -3 -87 -3 -88 -355 0 -355 0
-3 593 -2 592 360 0 360 0 0 -85z m900 0 l0 -85 -232 -2 -233 -3 -3 -147 -3
-148 216 0 215 0 0 -90 0 -90 -215 0 -215 0 2 -177 3 -178 233 -3 233 -2 -3
-88 -3 -87 -355 0 -355 0 -3 593 -2 592 360 0 360 0 0 -85z m-6625 -1370 l24
-55 50 0 c27 0 52 -4 55 -9 4 -5 -9 -21 -26 -36 -46 -39 -50 -48 -37 -100 6
-25 9 -48 7 -51 -3 -2 -27 8 -53 23 l-48 26 -49 -27 c-27 -15 -52 -26 -54 -23
-3 3 0 24 6 47 6 23 9 44 7 46 -3 3 -409 -2 -903 -10 -495 -9 -1349 -22 -1899
-31 -550 -8 -1062 -17 -1138 -20 -136 -5 -138 -5 -162 19 -29 29 -32 71 -8
105 l16 24 356 -6 c196 -4 628 -12 961 -17 333 -6 1003 -17 1490 -25 487 -8
977 -17 1090 -20 l205 -5 -43 38 c-24 20 -40 41 -36 45 4 4 31 7 60 7 l52 0
22 55 c12 30 24 55 26 55 2 0 15 -25 29 -55z m470 0 l24 -55 50 0 c27 0 52 -4
55 -9 4 -5 -13 -25 -36 -44 l-42 -35 13 -52 c7 -28 11 -54 8 -56 -3 -3 -27 7
-53 22 l-47 28 -50 -28 c-27 -15 -51 -25 -53 -23 -2 2 1 28 8 57 l12 52 -43
37 c-23 20 -39 40 -35 44 4 4 29 7 56 7 l49 0 25 55 c14 30 27 55 30 55 2 0
15 -25 29 -55z m542 -55 c28 0 54 -4 57 -9 4 -5 -12 -24 -34 -41 -43 -34 -48
-54 -29 -109 6 -18 9 -34 6 -37 -3 -3 -28 7 -55 22 l-49 28 -47 -28 c-26 -15
-50 -25 -53 -22 -3 3 0 28 7 57 l13 52 -42 34 c-22 19 -39 39 -35 44 3 5 28 9
55 9 l50 0 26 58 26 57 26 -57 26 -58 52 0z m469 0 c29 0 55 -4 58 -8 3 -5
-15 -25 -39 -45 l-43 -37 14 -52 c7 -29 14 -56 14 -60 0 -4 -23 6 -50 22 -28
17 -55 30 -61 30 -5 0 -27 -11 -49 -25 -22 -14 -44 -25 -49 -25 -6 0 -3 22 5
51 8 28 14 54 12 59 -2 4 -22 24 -45 43 -48 39 -43 47 33 47 44 0 44 0 70 58
l26 57 25 -57 26 -58 53 0z m391 58 c19 -50 22 -53 59 -56 86 -6 88 -8 41 -49
-23 -21 -43 -38 -45 -39 -1 0 4 -25 12 -55 7 -30 10 -55 6 -57 -5 -2 -27 8
-49 22 -50 32 -52 32 -101 1 -62 -39 -62 -40 -36 65 5 21 -1 31 -39 60 -24 19
-42 37 -39 40 3 2 31 7 61 10 l56 5 20 53 c11 28 23 52 27 52 4 0 16 -24 27
-52z m468 -3 c25 -55 25 -55 69 -55 76 0 81 -8 33 -47 -23 -19 -43 -39 -45
-43 -2 -5 4 -31 12 -59 8 -29 11 -51 5 -51 -5 0 -27 11 -49 25 -22 14 -44 25
-49 25 -6 0 -33 -14 -62 -31 -50 -29 -51 -29 -45 -7 4 13 10 41 13 64 5 39 3
43 -36 74 -22 18 -38 37 -35 41 3 5 29 9 59 9 l53 0 23 55 c12 30 24 55 26 55
2 0 15 -25 28 -55z m470 0 l24 -55 50 0 c27 0 52 -4 55 -9 4 -5 -13 -25 -35
-44 l-42 -34 13 -52 c7 -29 10 -54 7 -57 -3 -3 -27 7 -53 22 l-47 28 -49 -28
c-27 -15 -52 -25 -55 -22 -3 3 0 19 6 37 19 55 14 75 -29 109 -22 17 -38 36
-34 41 3 5 29 9 58 9 l52 0 23 55 c13 30 25 55 27 55 2 0 15 -25 29 -55z m469
0 l25 -55 49 0 c27 0 52 -3 56 -7 4 -4 -12 -24 -35 -44 l-43 -37 12 -52 c7
-29 10 -55 8 -57 -2 -3 -26 8 -52 23 l-47 28 -50 -28 c-27 -15 -51 -25 -53
-23 -2 2 1 28 8 56 l12 53 -42 35 c-23 19 -40 39 -36 44 3 5 28 9 55 9 l50 0
25 55 c14 30 27 55 29 55 2 0 15 -25 29 -55z m541 -55 c28 0 55 -3 59 -7 4 -4
-12 -25 -36 -45 l-43 -38 200 5 c110 3 605 12 1100 20 1437 24 2055 34 2441
42 l361 6 16 -24 c25 -34 21 -76 -8 -105 -25 -25 -25 -25 -173 -19 -81 3 -590
12 -1132 20 -542 9 -1392 22 -1889 31 -497 8 -906 12 -909 10 -3 -3 0 -24 7
-47 7 -22 10 -43 7 -46 -2 -3 -27 8 -54 23 l-49 27 -48 -26 c-26 -15 -50 -25
-53 -23 -2 3 1 26 7 51 13 52 9 61 -37 100 -17 15 -30 31 -26 36 3 5 28 9 55
9 l50 0 26 58 26 57 25 -57 25 -58 52 0z"/>
<path d="M7805 11789 c-371 -27 -821 -131 -1190 -276 -174 -68 -470 -218 -496
-252 -19 -24 -20 -48 -17 -1315 l3 -1291 29 -85 c47 -140 134 -302 229 -430
194 -259 444 -502 741 -723 171 -126 604 -414 733 -486 142 -80 155 -82 243
-37 555 288 1191 786 1500 1176 162 204 247 356 285 506 l24 92 1 1238 c1 682
1 1266 1 1299 l-1 60 -152 82 c-246 132 -440 209 -763 302 -435 125 -785 167
-1170 140z m510 -149 c535 -79 992 -215 1340 -398 l110 -59 3 -1207 c2 -1361
4 -1332 -66 -1495 -129 -299 -485 -691 -921 -1014 -207 -154 -569 -385 -719
-459 l-63 -31 -57 27 c-73 36 -328 190 -462 279 -245 163 -363 254 -621 478
-243 211 -434 449 -554 694 -83 170 -77 55 -77 1465 l1 1255 30 25 c29 25 228
118 386 180 330 131 819 251 1145 280 137 12 364 4 525 -20z"/>
<path d="M7815 11603 c-534 -65 -963 -184 -1357 -375 l-166 -81 -7 -153 c-4
-84 -5 -640 -2 -1236 6 -1209 1 -1128 78 -1282 183 -363 528 -708 1114 -1113
317 -219 490 -319 536 -309 56 11 552 328 755 483 479 365 790 715 915 1028
l24 60 3 1261 3 1262 -148 72 c-216 105 -381 166 -688 255 -139 39 -395 91
-578 115 -137 18 -385 25 -482 13z m1073 -1248 c2 -121 0 -293 -3 -382 l-7
-163 -29 0 -29 0 0 153 c0 271 -33 369 -146 443 -32 22 -187 29 -244 12 -86
-26 -170 -171 -157 -269 9 -66 53 -147 114 -208 76 -75 186 -146 428 -276 247
-132 363 -249 434 -435 38 -99 45 -174 27 -277 -20 -116 -64 -201 -151 -292
-144 -151 -359 -243 -600 -258 -259 -15 -504 69 -666 229 -117 116 -172 244
-172 398 0 101 20 176 74 280 40 77 123 190 140 190 22 0 8 -122 -26 -224 -40
-119 -43 -175 -19 -294 45 -222 201 -396 419 -465 120 -39 308 -41 437 -7 245
66 398 289 386 560 -4 77 -8 93 -43 155 -71 127 -117 163 -496 385 -258 151
-353 254 -394 427 -15 61 -16 82 -6 140 23 136 104 247 218 299 84 39 246 45
356 15 42 -11 79 -21 82 -21 3 0 5 18 5 39 0 58 8 73 39 69 l26 -3 3 -220z
m-1928 95 l117 0 51 -102 c73 -149 89 -190 205 -538 108 -325 162 -460 175
-444 5 5 37 86 71 179 144 386 344 872 371 899 13 13 252 9 289 -5 32 -13 24
-18 -56 -38 l-68 -17 -3 -872 c-1 -514 -6 -872 -11 -872 -18 0 -117 109 -139
154 l-23 45 3 666 c2 366 0 665 -3 665 -8 0 -5 5 -98 -240 -38 -102 -100 -261
-136 -355 -37 -93 -89 -233 -117 -310 -28 -77 -60 -160 -73 -184 -27 -54 -17
-69 -118 174 -41 99 -94 223 -117 275 -24 52 -78 178 -120 280 -105 248 -128
300 -137 300 -5 0 -8 -318 -8 -708 0 -752 2 -787 48 -830 12 -12 49 -27 82
-34 54 -12 60 -16 63 -41 l3 -27 -230 0 -231 0 0 30 0 30 90 0 91 0 -3 873
c-3 821 -4 874 -21 909 -22 43 -74 68 -141 68 -49 0 -60 14 -50 57 7 25 9 25
67 19 33 -3 113 -6 177 -6z m1407 -830 c175 -41 297 -172 297 -319 0 -109 -50
-184 -147 -220 -39 -15 -147 -13 -177 2 -47 24 -37 43 37 66 85 26 128 52 153
93 77 126 -72 287 -282 304 -75 7 -76 7 -86 40 -5 18 -7 35 -4 38 9 10 164 6
209 -4z m-399 -1117 l43 -28 -117 -3 c-64 -1 -118 -1 -119 0 -1 2 -5 15 -9 31
l-6 27 83 0 c74 0 88 -3 125 -27z"/>
<path d="M4990 5034 c-6 -33 -18 -84 -25 -114 -23 -90 -65 -271 -65 -281 0 -5
48 -9 106 -9 96 0 105 2 100 18 -2 9 -23 109 -47 222 -23 113 -45 209 -49 214
-5 4 -13 -18 -20 -50z"/>
<path d="M6852 4872 c-29 -125 -52 -230 -52 -234 0 -5 48 -8 106 -8 96 0 105
2 100 18 -3 9 -24 109 -47 222 -22 113 -44 210 -48 217 -3 6 -30 -91 -59 -215z"/>
<path d="M10320 5004 l0 -166 118 4 c128 4 165 16 197 64 27 41 31 149 8 194
-29 56 -69 70 -205 70 l-118 0 0 -166z"/>
</g>
</svg>
